<?xml version="1.0" standalone="no"?><!DOCTYPE svg PUBLIC "-//W3C//DTD SVG 1.1//EN" "http://www.w3.org/Graphics/SVG/1.1/DTD/svg11.dtd"><svg t="1749389621803" class="icon" viewBox="0 0 1024 1024" version="1.1" xmlns="http://www.w3.org/2000/svg" p-id="5633" xmlns:xlink="http://www.w3.org/1999/xlink" width="200" height="200"><path d="M631.68 64a55.68 55.68 0 0 1 53.76 69.888L652.992 256h230.464a78.272 78.272 0 0 1 77.056 69.632l0.448 7.872-0.32 7.872a75.648 75.648 0 0 1-76.16 68.608l-272.384 0.256-60.928 229.76h332.288a78.272 78.272 0 0 1 77.056 69.632l0.448 7.872-0.32 7.872a75.648 75.648 0 0 1-76.16 68.608l-374.272 0.32-31.296 118.016a64 64 0 0 1-54.016 47.168L417.088 960h-23.936a56.192 56.192 0 0 1-54.272-70.656l25.344-94.848-222.72 0.256a78.272 78.272 0 0 1-77.056-69.632L64 717.248A76.416 76.416 0 0 1 140.48 640h264.96l61.376-229.568-325.312 0.32A78.272 78.272 0 0 1 64.448 341.12L64 333.248A76.416 76.416 0 0 1 140.48 256h367.552l38.656-144.512a64 64 0 0 1 54.08-47.04L608.512 64z" fill="#8e0efe" p-id="5634"></path></svg>